<svg width="1200" height="630" viewBox="0 0 1200 630" fill="none" xmlns="http://www.w3.org/2000/svg">
  <defs>
    <linearGradient id="bg" x1="92" y1="64" x2="1084" y2="576" gradientUnits="userSpaceOnUse">
      <stop stop-color="#0D1B2A"/>
      <stop offset="0.55" stop-color="#132A3B"/>
      <stop offset="1" stop-color="#08131F"/>
    </linearGradient>
    <radialGradient id="glow" cx="0" cy="0" r="1" gradientUnits="userSpaceOnUse" gradientTransform="translate(618 278) rotate(90) scale(210 310)">
      <stop stop-color="#54FFD2" stop-opacity="0.32"/>
      <stop offset="1" stop-color="#54FFD2" stop-opacity="0"/>
    </radialGradient>
    <linearGradient id="arm" x1="330" y1="150" x2="900" y2="470" gradientUnits="userSpaceOnUse">
      <stop stop-color="#D8E4EC"/>
      <stop offset="0.5" stop-color="#89A3B7"/>
      <stop offset="1" stop-color="#5D7184"/>
    </linearGradient>
    <linearGradient id="armShade" x1="352" y1="194" x2="868" y2="468" gradientUnits="userSpaceOnUse">
      <stop stop-color="#31495B"/>
      <stop offset="1" stop-color="#1A2935"/>
    </linearGradient>
    <linearGradient id="copper" x1="424" y1="214" x2="790" y2="405" gradientUnits="userSpaceOnUse">
      <stop stop-color="#FFB078"/>
      <stop offset="0.5" stop-color="#F27A4D"/>
      <stop offset="1" stop-color="#A9482A"/>
    </linearGradient>
    <linearGradient id="steel" x1="500" y1="170" x2="742" y2="448" gradientUnits="userSpaceOnUse">
      <stop stop-color="#C8D9E5"/>
      <stop offset="0.55" stop-color="#8AA1B3"/>
      <stop offset="1" stop-color="#5C7284"/>
    </linearGradient>
    <filter id="softGlow" x="377" y="148" width="484" height="330" filterUnits="userSpaceOnUse" color-interpolation-filters="sRGB">
      <feFlood flood-opacity="0" result="BackgroundImageFix"/>
      <feBlend in="SourceGraphic" in2="BackgroundImageFix" result="shape"/>
      <feGaussianBlur stdDeviation="12" result="effect1_foregroundBlur_0_1"/>
    </filter>
    <filter id="shadow" x="216" y="90" width="778" height="434" filterUnits="userSpaceOnUse" color-interpolation-filters="sRGB">
      <feFlood flood-opacity="0" result="BackgroundImageFix"/>
      <feColorMatrix in="SourceAlpha" type="matrix" values="0 0 0 0 0 0 0 0 0 0 0 0 0 0 0 0 0 0 127 0" result="hardAlpha"/>
      <feOffset dy="18"/>
      <feGaussianBlur stdDeviation="18"/>
      <feColorMatrix type="matrix" values="0 0 0 0 0.01 0 0 0 0 0.05 0 0 0 0 0.09 0 0 0 0.55 0"/>
      <feBlend mode="normal" in2="BackgroundImageFix" result="effect1_dropShadow_0_1"/>
      <feBlend mode="normal" in="SourceGraphic" in2="effect1_dropShadow_0_1" result="shape"/>
    </filter>
  </defs>

  <rect width="1200" height="630" rx="32" fill="url(#bg)"/>
  <rect x="36" y="36" width="1128" height="558" rx="28" stroke="#3A566A" stroke-opacity="0.35"/>
  <ellipse cx="618" cy="286" rx="368" ry="206" fill="url(#glow)"/>

  <g opacity="0.9">
    <circle cx="166" cy="116" r="2.5" fill="#BCE5F8">
      <animate attributeName="opacity" values="0.2;1;0.25" dur="2.2s" repeatCount="indefinite"/>
    </circle>
    <circle cx="232" cy="188" r="2" fill="#5CFFD0">
      <animate attributeName="opacity" values="0.15;0.85;0.15" dur="2.8s" repeatCount="indefinite"/>
    </circle>
    <circle cx="1026" cy="120" r="2.5" fill="#BCE5F8">
      <animate attributeName="opacity" values="0.25;0.95;0.2" dur="2.5s" repeatCount="indefinite"/>
    </circle>
    <circle cx="950" cy="204" r="2" fill="#5CFFD0">
      <animate attributeName="opacity" values="0.1;0.9;0.1" dur="3.1s" repeatCount="indefinite"/>
    </circle>
    <circle cx="146" cy="468" r="2" fill="#BCE5F8">
      <animate attributeName="opacity" values="0.15;0.75;0.15" dur="2.7s" repeatCount="indefinite"/>
    </circle>
    <circle cx="1048" cy="490" r="2.5" fill="#5CFFD0">
      <animate attributeName="opacity" values="0.2;1;0.2" dur="2.3s" repeatCount="indefinite"/>
    </circle>
  </g>

  <path d="M88 472C200 414 264 376 352 332C452 282 526 272 602 286" stroke="#284A5C" stroke-width="2" stroke-linecap="round" opacity="0.7"/>
  <path d="M1112 474C1012 420 956 386 862 334C770 284 692 272 602 286" stroke="#284A5C" stroke-width="2" stroke-linecap="round" opacity="0.7"/>

  <g filter="url(#shadow)">
    <rect x="250" y="126" width="700" height="360" rx="34" fill="#0F202C" fill-opacity="0.76"/>
    <rect x="250" y="126" width="700" height="360" rx="34" stroke="#5D7B90" stroke-opacity="0.3"/>
  </g>

  <g opacity="0.3">
    <rect x="286" y="162" width="628" height="292" rx="26" stroke="#7FA2B9" stroke-dasharray="6 10"/>
    <animate attributeName="opacity" values="0.15;0.35;0.15" dur="4s" repeatCount="indefinite"/>
  </g>

  <g transform="translate(0 6)">
    <g>
      <animateTransform attributeName="transform" type="rotate" values="-4 602 300;2 602 300;-4 602 300" dur="6s" repeatCount="indefinite"/>

      <path d="M460 280C390 238 338 210 298 180C274 162 264 152 248 144" stroke="url(#arm)" stroke-width="18" stroke-linecap="round"/>
      <path d="M742 280C812 236 866 208 904 180C930 160 940 150 954 142" stroke="url(#arm)" stroke-width="18" stroke-linecap="round"/>
      <path d="M450 324C372 320 316 326 268 346C238 358 220 370 198 390" stroke="url(#arm)" stroke-width="18" stroke-linecap="round"/>
      <path d="M752 324C830 320 888 328 936 346C968 358 984 370 1004 390" stroke="url(#arm)" stroke-width="18" stroke-linecap="round"/>
      <path d="M470 360C408 392 374 430 344 456C318 478 296 488 280 496" stroke="url(#arm)" stroke-width="18" stroke-linecap="round"/>
      <path d="M732 360C794 392 830 430 858 456C884 478 906 488 922 496" stroke="url(#arm)" stroke-width="18" stroke-linecap="round"/>

      <path d="M460 280C390 238 338 210 298 180C274 162 264 152 248 144" stroke="url(#armShade)" stroke-width="6" stroke-linecap="round" opacity="0.5"/>
      <path d="M742 280C812 236 866 208 904 180C930 160 940 150 954 142" stroke="url(#armShade)" stroke-width="6" stroke-linecap="round" opacity="0.5"/>
      <path d="M450 324C372 320 316 326 268 346C238 358 220 370 198 390" stroke="url(#armShade)" stroke-width="6" stroke-linecap="round" opacity="0.5"/>
      <path d="M752 324C830 320 888 328 936 346C968 358 984 370 1004 390" stroke="url(#armShade)" stroke-width="6" stroke-linecap="round" opacity="0.5"/>
      <path d="M470 360C408 392 374 430 344 456C318 478 296 488 280 496" stroke="url(#armShade)" stroke-width="6" stroke-linecap="round" opacity="0.5"/>
      <path d="M732 360C794 392 830 430 858 456C884 478 906 488 922 496" stroke="url(#armShade)" stroke-width="6" stroke-linecap="round" opacity="0.5"/>

      <g opacity="0.9">
        <path d="M242 138L222 130L216 150L234 156Z" fill="#C9D7E1"/>
        <path d="M240 138L226 134L220 147L234 151Z" fill="#8199AB"/>
        <path d="M958 136L978 128L984 148L966 154Z" fill="#C9D7E1"/>
        <path d="M960 136L974 132L980 145L966 149Z" fill="#8199AB"/>
        <path d="M194 384L172 384L172 406L194 402Z" fill="#C9D7E1"/>
        <path d="M1008 384L1030 384L1030 406L1008 402Z" fill="#C9D7E1"/>
        <path d="M278 492L260 500L272 516L286 504Z" fill="#C9D7E1"/>
        <path d="M924 492L942 500L930 516L916 504Z" fill="#C9D7E1"/>
      </g>

      <g filter="url(#softGlow)">
        <ellipse cx="602" cy="308" rx="112" ry="112" fill="#54FFD2" fill-opacity="0.08">
          <animate attributeName="fill-opacity" values="0.05;0.16;0.05" dur="3.4s" repeatCount="indefinite"/>
        </ellipse>
      </g>

      <ellipse cx="602" cy="308" rx="120" ry="92" fill="#0B1721" stroke="#6B8395" stroke-width="4"/>
      <rect x="526" y="198" width="152" height="58" rx="28" fill="url(#steel)" stroke="#D8E4EC" stroke-opacity="0.5" stroke-width="3"/>
      <ellipse cx="602" cy="282" rx="70" ry="58" fill="#C6D6E0" opacity="0.18"/>

      <circle cx="566" cy="268" r="21" fill="#09131D"/>
      <circle cx="638" cy="268" r="21" fill="#09131D"/>
      <circle cx="566" cy="268" r="11" fill="#5CFFD0">
        <animate attributeName="r" values="10;11.5;10" dur="2.2s" repeatCount="indefinite"/>
        <animate attributeName="fill-opacity" values="0.75;1;0.75" dur="2.2s" repeatCount="indefinite"/>
      </circle>
      <circle cx="638" cy="268" r="11" fill="#5CFFD0">
        <animate attributeName="r" values="10;11.5;10" dur="2.2s" repeatCount="indefinite"/>
        <animate attributeName="fill-opacity" values="0.75;1;0.75" dur="2.2s" repeatCount="indefinite"/>
      </circle>

      <path d="M556 334C574 350 596 356 620 354C642 352 658 344 670 330" stroke="url(#copper)" stroke-width="8" stroke-linecap="round"/>
      <circle cx="602" cy="310" r="28" fill="#08131B" stroke="#F07A4D" stroke-width="5"/>
      <circle cx="602" cy="310" r="12" fill="#FF9B6A">
        <animate attributeName="r" values="11;14;11" dur="1.9s" repeatCount="indefinite"/>
        <animate attributeName="fill-opacity" values="0.82;1;0.82" dur="1.9s" repeatCount="indefinite"/>
      </circle>
      <circle cx="602" cy="310" r="42" fill="none" stroke="#F07A4D" stroke-opacity="0.35" stroke-width="2.5">
        <animate attributeName="r" values="34;48;34" dur="2.7s" repeatCount="indefinite"/>
        <animate attributeName="stroke-opacity" values="0.45;0.15;0.45" dur="2.7s" repeatCount="indefinite"/>
      </circle>
    </g>
  </g>

  <text x="314" y="430" fill="#EAF5FB" font-size="82" font-family="Georgia, 'Times New Roman', serif" font-weight="700">aiman</text>
  <text x="318" y="472" fill="#A9C8D8" font-size="26" font-family="'Trebuchet MS', 'Segoe UI', sans-serif">
    Orchestrate local AI agents with provider-native prompts and repo-local traces.
  </text>

  <rect x="318" y="500" width="120" height="10" rx="5" fill="#5CFFD0"/>
  <rect x="450" y="500" width="86" height="10" rx="5" fill="#F07A4D"/>
  <rect x="548" y="500" width="108" height="10" rx="5" fill="#89A3B7"/>
</svg>
